HIERARCHY
ROOT Hips
{
  OFFSET -304.748 92.812 1174.12
  CHANNELS 6 Xposition Yposition Zposition Zrotation Xrotation Yrotation
  JOINT Spine
  {
    OFFSET 3.96191e-05 8 6.97725e-05
    CHANNELS 6 Xposition Yposition Zposition Zrotation Xrotation Yrotation
    JOINT Spine1
    {
      OFFSET 5.93284e-05 7.99999 -7.72335e-05
      CHANNELS 6 Xposition Yposition Zposition Zrotation Xrotation Yrotation
      JOINT Spine2
      {
        OFFSET 0.00137032 8.00001 0.00142118
        CHANNELS 6 Xposition Yposition Zposition Zrotation Xrotation Yrotation
        JOINT Spine3
        {
          OFFSET 0 8 0
          CHANNELS 6 Xposition Yposition Zposition Zrotation Xrotation Yrotation
          JOINT Neck
          {
            OFFSET 4.70135e-05 17 -3.09185e-05
            CHANNELS 6 Xposition Yposition Zposition Zrotation Xrotation Yrotation
            JOINT Head
            {
              OFFSET -0.00192691 10.8 -0.00219947
              CHANNELS 6 Xposition Yposition Zposition Zrotation Xrotation Yrotation
              End Site
              {
                OFFSET 0 20.25 0
              }
            }
          }
          JOINT LeftShoulder
          {
            OFFSET 5.00007 17 -4.08325e-05
            CHANNELS 6 Xposition Yposition Zposition Zrotation Xrotation Yrotation
            JOINT LeftShoulder2
            {
              OFFSET 6.45 0 0
              CHANNELS 6 Xposition Yposition Zposition Zrotation Xrotation Yrotation
              JOINT LeftArm
              {
                OFFSET 6.44993 -1.35838e-05 5.21185e-05
                CHANNELS 6 Xposition Yposition Zposition Zrotation Xrotation Yrotation
                JOINT LeftForeArm
                {
                  OFFSET 0.000937545 -32.398 -1.99626
                  CHANNELS 6 Xposition Yposition Zposition Zrotation Xrotation Yrotation
                  JOINT LeftHand
                  {
                    OFFSET -0.00505595 -25.6522 2.00408
                    CHANNELS 6 Xposition Yposition Zposition Zrotation Xrotation Yrotation
                    JOINT LeftHandThumb1
                    {
                      OFFSET -0.500788 -1.49977 2.6504
                      CHANNELS 6 Xposition Yposition Zposition Zrotation Xrotation Yrotation
                      JOINT LeftHandThumb2
                      {
                        OFFSET 0.000599468 -3.7992 3.70082
                        CHANNELS 6 Xposition Yposition Zposition Zrotation Xrotation Yrotation
                        JOINT LeftHandThumb3
                        {
                          OFFSET -0.00815233 -3.01158 2.70015
                          CHANNELS 6 Xposition Yposition Zposition Zrotation Xrotation Yrotation
                          End Site
                          {
                            OFFSET -0.000329722 -2.29281 1.80779
                          }
                        }
                      }
                    }
                    JOINT LeftHandIndex
                    {
                      OFFSET -0.00018513 -1.90047 1.59918
                      CHANNELS 6 Xposition Yposition Zposition Zrotation Xrotation Yrotation
                      JOINT LeftHandIndex1
                      {
                        OFFSET 5.86936e-05 -8.29987 1.89984
                        CHANNELS 6 Xposition Yposition Zposition Zrotation Xrotation Yrotation
                        JOINT LeftHandIndex2
                        {
                          OFFSET -7.81929e-05 -4.50008 0.000252758
                          CHANNELS 6 Xposition Yposition Zposition Zrotation Xrotation Yrotation
                          JOINT LeftHandIndex3
                          {
                            OFFSET 2.21534e-05 -3.40003 0.000132852
                            CHANNELS 6 Xposition Yposition Zposition Zrotation Xrotation Yrotation
                            End Site
                            {
                              OFFSET 0.000604833 -2.59987 -0.000426358
                            }
                          }
                        }
                      }
                    }
                    JOINT LeftHandMiddle
                    {
                      OFFSET -0.245795 -2.20543 0.402755
                      CHANNELS 6 Xposition Yposition Zposition Zrotation Xrotation Yrotation
                      JOINT LeftHandMiddle1
                      {
                        OFFSET 1.32065e-05 -8.29995 0.99986
                        CHANNELS 6 Xposition Yposition Zposition Zrotation Xrotation Yrotation
                        JOINT LeftHandMiddle2
                        {
                          OFFSET 0.000634602 -4.65265 0.00091519
                          CHANNELS 6 Xposition Yposition Zposition Zrotation Xrotation Yrotation
                          JOINT LeftHandMiddle3
                          {
                            OFFSET 0.000775771 -3.29995 0.000974368
                            CHANNELS 6 Xposition Yposition Zposition Zrotation Xrotation Yrotation
                            End Site
                            {
                              OFFSET -0.00374287 -2.69948 -0.00271935
                            }
                          }
                        }
                      }
                    }
                    JOINT LeftHandRing
                    {
                      OFFSET -0.50093 -2.15048 -0.800678
                      CHANNELS 6 Xposition Yposition Zposition Zrotation Xrotation Yrotation
                      JOINT LeftHandRing1
                      {
                        OFFSET -0.00398826 -7.73816 -0.204731
                        CHANNELS 6 Xposition Yposition Zposition Zrotation Xrotation Yrotation
                        JOINT LeftHandRing2
                        {
                          OFFSET -0.00079936 -3.79979 0.000355825
                          CHANNELS 6 Xposition Yposition Zposition Zrotation Xrotation Yrotation
                          JOINT LeftHandRing3
                          {
                            OFFSET -0.00315335 -3.40261 -0.000675492
                            CHANNELS 6 Xposition Yposition Zposition Zrotation Xrotation Yrotation
                            End Site
                            {
                              OFFSET -0.00257736 -2.60058 0.000405405
                            }
                          }
                        }
                      }
                    }
                    JOINT LeftHandPinky
                    {
                      OFFSET -0.75128 -1.7496 -1.84936
                      CHANNELS 6 Xposition Yposition Zposition Zrotation Xrotation Yrotation
                      JOINT LeftHandPinky1
                      {
                        OFFSET 3.34834e-05 -7.15009 -0.999891
                        CHANNELS 6 Xposition Yposition Zposition Zrotation Xrotation Yrotation
                        JOINT LeftHandPinky2
                        {
                          OFFSET 0.00718079 -2.99746 0.00162212
                          CHANNELS 6 Xposition Yposition Zposition Zrotation Xrotation Yrotation
                          JOINT LeftHandPinky3
                          {
                            OFFSET -0.00249662 -2.34953 0.00183554
                            CHANNELS 6 Xposition Yposition Zposition Zrotation Xrotation Yrotation
                            End Site
                            {
                              OFFSET 0.000218352 -2.10222 0.00101107
                            }
                          }
                        }
                      }
                    }
                  }
                }
              }
            }
          }
          JOINT RightShoulder
          {
            OFFSET -4.99997 17 -2.60738e-05
            CHANNELS 6 Xposition Yposition Zposition Zrotation Xrotation Yrotation
            JOINT RightShoulder2
            {
              OFFSET -6.45 0 0
              CHANNELS 6 Xposition Yposition Zposition Zrotation Xrotation Yrotation
              JOINT RightArm
              {
                OFFSET -6.44997 0 0
                CHANNELS 6 Xposition Yposition Zposition Zrotation Xrotation Yrotation
                JOINT RightForeArm
                {
                  OFFSET -0.00442521 -32.3886 -1.98935
                  CHANNELS 6 Xposition Yposition Zposition Zrotation Xrotation Yrotation
                  JOINT RightHand
                  {
                    OFFSET 6.57892e-05 -25.6546 1.99832
                    CHANNELS 6 Xposition Yposition Zposition Zrotation Xrotation Yrotation
                    JOINT RightHandThumb1
                    {
                      OFFSET 0.498469 -1.50133 2.65313
                      CHANNELS 6 Xposition Yposition Zposition Zrotation Xrotation Yrotation
                      JOINT RightHandThumb2
                      {
                        OFFSET -6.97814e-05 -3.79999 3.69996
                        CHANNELS 6 Xposition Yposition Zposition Zrotation Xrotation Yrotation
                        JOINT RightHandThumb3
                        {
                          OFFSET 0.000539382 -3.0141 2.69667
                          CHANNELS 6 Xposition Yposition Zposition Zrotation Xrotation Yrotation
                          End Site
                          {
                            OFFSET -4.05196e-05 -2.30005 1.79995
                          }
                        }
                      }
                    }
                    JOINT RightHandIndex
                    {
                      OFFSET 0.00021856 -1.89674 1.60159
                      CHANNELS 6 Xposition Yposition Zposition Zrotation Xrotation Yrotation
                      JOINT RightHandIndex1
                      {
                        OFFSET 9.12569e-05 -8.29859 1.90064
                        CHANNELS 6 Xposition Yposition Zposition Zrotation Xrotation Yrotation
                        JOINT RightHandIndex2
                        {
                          OFFSET 0.00221071 -4.49815 -0.0065728
                          CHANNELS 6 Xposition Yposition Zposition Zrotation Xrotation Yrotation
                          JOINT RightHandIndex3
                          {
                            OFFSET -0.000193711 -3.39964 0.00163409
                            CHANNELS 6 Xposition Yposition Zposition Zrotation Xrotation Yrotation
                            End Site
                            {
                              OFFSET 0.00174524 -2.60054 0.000467352
                            }
                          }
                        }
                      }
                    }
                    JOINT RightHandMiddle
                    {
                      OFFSET 0.249922 -2.19964 0.400063
                      CHANNELS 6 Xposition Yposition Zposition Zrotation Xrotation Yrotation
                      JOINT RightHandMiddle1
                      {
                        OFFSET -0.00230677 -8.30205 1.00434
                        CHANNELS 6 Xposition Yposition Zposition Zrotation Xrotation Yrotation
                        JOINT RightHandMiddle2
                        {
                          OFFSET 4.96849e-05 -4.64989 -0.000626737
                          CHANNELS 6 Xposition Yposition Zposition Zrotation Xrotation Yrotation
                          JOINT RightHandMiddle3
                          {
                            OFFSET -0.00122583 -3.29507 0.005984
                            CHANNELS 6 Xposition Yposition Zposition Zrotation Xrotation Yrotation
                            End Site
                            {
                              OFFSET 0.000499661 -2.70059 0.0008129
                            }
                          }
                        }
                      }
                    }
                    JOINT RightHandRing
                    {
                      OFFSET 0.499508 -2.15048 -0.798764
                      CHANNELS 6 Xposition Yposition Zposition Zrotation Xrotation Yrotation
                      JOINT RightHandRing1
                      {
                        OFFSET 0.00252569 -7.74667 -0.205544
                        CHANNELS 6 Xposition Yposition Zposition Zrotation Xrotation Yrotation
                        JOINT RightHandRing2
                        {
                          OFFSET 0.000973125 -3.79876 0.00073756
                          CHANNELS 6 Xposition Yposition Zposition Zrotation Xrotation Yrotation
                          JOINT RightHandRing3
                          {
                            OFFSET -0.00569424 -3.39451 0.0109675
                            CHANNELS 6 Xposition Yposition Zposition Zrotation Xrotation Yrotation
                            End Site
                            {
                              OFFSET -0.00081526 -2.60166 -0.0082511
                            }
                          }
                        }
                      }
                    }
                    JOINT RightHandPinky
                    {
                      OFFSET 0.748888 -1.75051 -1.84495
                      CHANNELS 6 Xposition Yposition Zposition Zrotation Xrotation Yrotation
                      JOINT RightHandPinky1
                      {
                        OFFSET 0.000266461 -7.14994 -1.00036
                        CHANNELS 6 Xposition Yposition Zposition Zrotation Xrotation Yrotation
                        JOINT RightHandPinky2
                        {
                          OFFSET 0.00185939 -2.99908 -0.00182828
                          CHANNELS 6 Xposition Yposition Zposition Zrotation Xrotation Yrotation
                          JOINT RightHandPinky3
                          {
                            OFFSET -0.000897462 -2.34885 0.00243656
                            CHANNELS 6 Xposition Yposition Zposition Zrotation Xrotation Yrotation
                            End Site
                            {
                              OFFSET -0.000136807 -2.09972 -0.00011232
                            }
                          }
                        }
                      }
                    }
                  }
                }
              }
            }
          }
        }
      }
    }
  }
  JOINT LeftUpLeg
  {
    OFFSET 8.00003 0 1.35863e-05
    CHANNELS 6 Xposition Yposition Zposition Zrotation Xrotation Yrotation
    JOINT LeftLeg
    {
      OFFSET -0.000406826 -45.0001 -0.999527
      CHANNELS 6 Xposition Yposition Zposition Zrotation Xrotation Yrotation
      JOINT LeftFoot
      {
        OFFSET -0.00021315 -41 -2.00012
        CHANNELS 6 Xposition Yposition Zposition Zrotation Xrotation Yrotation
        JOINT LeftToeBase
        {
          OFFSET 0.00259585 -7.5 12.5015
          CHANNELS 6 Xposition Yposition Zposition Zrotation Xrotation Yrotation
          JOINT LeftFootToe
          {
            OFFSET 0 0 4
            CHANNELS 6 Xposition Yposition Zposition Zrotation Xrotation Yrotation
            End Site
            {
              OFFSET 0 0 0
            }
          }
        }
      }
    }
  }
  JOINT RightUpLeg
  {
    OFFSET -8.00003 0 -1.35863e-05
    CHANNELS 6 Xposition Yposition Zposition Zrotation Xrotation Yrotation
    JOINT RightLeg
    {
      OFFSET -2.76332e-05 -45.0001 -1.0002
      CHANNELS 6 Xposition Yposition Zposition Zrotation Xrotation Yrotation
      JOINT RightFoot
      {
        OFFSET -9.43493e-05 -41 -1.99995
        CHANNELS 6 Xposition Yposition Zposition Zrotation Xrotation Yrotation
        JOINT RightToeBase
        {
          OFFSET 0.000284003 -7.5 12.4999
          CHANNELS 6 Xposition Yposition Zposition Zrotation Xrotation Yrotation
          JOINT RightFootToe
          {
            OFFSET 0 0 4
            CHANNELS 6 Xposition Yposition Zposition Zrotation Xrotation Yrotation
            End Site
            {
              OFFSET 0 0 0
            }
          }
        }
      }
    }
  }
}
MOTION
Frames:	3
Frame Time:	0.0111111
-294.307 92.7741 1170.81 0.330905 0.477346 -120.213 0 8 5.68434e-14 1.25515 6.38953 11.4596 0 8 1.13687e-13 0.23692 1.06087 4.67122 0 8 -1.7053e-13 0.133107 0.528276 2.33703 0 8 0 0.132007 0.528222 2.33484 -2.27374e-13 17 1.42109e-13 0.945571 2.71967 8.24824 2.27374e-13 10.8 -5.68434e-14 -2.34625 -4.60098 19.2668 5 17 8.52651e-14 -3.54027 1.95826 -0.700863 6.45 -5.68434e-14 0 -1.03461 0.114213 -0.718272 6.45 0 0 14.0473 -46.2955 21.1239 0 -32.4 -2 -10.6642 -45.6829 -5.69437 2.27374e-13 -25.65 2 -3.49367 -7.21128 10.5242 -0.5 -1.5 2.65 1.81543 -59.8064 -0.970118 4.54747e-13 -3.8 3.7 0.0160607 -0.923573 0.0934509 -2.27374e-13 -3 2.7 -0.0164306 -0.265777 0.00863542 0 -1.9 1.6 8.28515e-06 -1.20436e-05 1.08077e-05 2.27374e-13 -8.3 1.9 -1.45322 10.143 0.179707 -2.27374e-13 -4.5 0 -4.87807 -0.00147988 0.00546112 0 -3.4 -5.68434e-14 -4.49879 -0.0189599 0.00372273 -0.25 -2.2 0.4 8.28515e-06 -1.20436e-05 1.08077e-05 2.27374e-13 -8.3 1 -2.70284 10.637 0.379914 -2.27374e-13 -4.65 -5.68434e-14 -16.0307 -0.00724685 0.00888034 -2.27374e-13 -3.3 0 -90.0002 -5.17564e-05 2.63265e-05 -0.5 -2.15 -0.8 8.28515e-06 -1.20436e-05 1.08077e-05 0 -7.75 -0.2 -4.49993 4.31717 9.37784 2.27374e-13 -3.8 0 -24.3207 0.00086046 -0.00790844 0 -3.4 1.13687e-13 -90.0002 0.00494462 0.00162347 -0.75 -1.75 -1.85 8.28515e-06 -1.20436e-05 1.08077e-05 -2.27374e-13 -7.15 -1 -6.57546 11.6828 1.0232 0 -3 1.13687e-13 -17.333 0.00201335 -0.0151897 2.27374e-13 -2.35 0 -14.0935 0.00789234 -0.0134791 -5 17 2.84217e-14 -2.11409 6.07153 0.0447868 -6.45 -1.13687e-13 -1.13687e-13 -1.13896 -0.0759977 -3.04128 -6.45 0 0 3.15164 -41.1106 -5.6187 0 -32.4 -2 69.5353 -48.7855 52.9381 1.13687e-13 -25.65 2 -18.3367 17.7925 22.2129 0.5 -1.5 2.65 130.93 87.9888 45.6324 2.27374e-13 -3.8 3.7 0.540508 44.1267 0.164216 0 -3 2.7 0.0489613 14.272 0.0253918 -2.27374e-13 -1.9 1.6 -9.12999e-06 -3.90493e-06 -2.36182e-06 0 -8.3 1.9 0.165349 -3.1093 0.00475784 0 -4.5 -2.84217e-13 4.17065 10.1042 2.03533 0 -3.4 -2.27374e-13 20.2228 0.00642748 -0.000763314 0.25 -2.2 0.4 -9.12999e-06 -3.90493e-06 -2.36182e-06 -2.27374e-13 -8.3 1 12.7903 6.14932 -1.68786 -2.27374e-13 -4.65 -1.13687e-13 0.430097 15.0448 13.5379 0 -3.3 1.13687e-13 74.0749 -0.033133 -0.0206865 0.5 -2.15 -0.8 -9.12999e-06 -3.90493e-06 -2.36182e-06 -2.27374e-13 -7.75 -0.2 50.0936 2.93652 -4.82516 1.13687e-13 -3.8 -5.68434e-14 1.01777 21.7203 19.1575 -5.68434e-14 -3.4 -2.27374e-13 72.8255 0.0446925 -0.00241042 0.75 -1.75 -1.85 -9.12999e-06 -3.90493e-06 -2.36182e-06 0 -7.15 -1 73.5899 -0.253041 -7.14214 2.84217e-14 -3 1.13687e-13 4.31761 16.7173 7.38435 -5.68434e-14 -2.35 -1.13687e-13 35.7879 -0.0117879 -0.0110367 8 -2.84217e-14 -1.7053e-13 4.79191 -17.228 16.5804 2.27374e-13 -45 -1 4.39393 3.27 -15.1348 -2.27374e-13 -41 -2 -7.2719 12.8442 -34.826 0 -7.5 12.5 -3.99773e-05 -0.120667 -0.0216265 -2.27374e-13 0 4 0.462203 -8.32425 29.6514 -8 -1.42109e-14 1.13687e-13 -5.59527 5.95596 2.04979 0 -45 -1 3.87355 -1.07451 -1.18305 0 -41 -2 2.51323 -4.38101 -23.903 0 -7.5 12.5 1.7751e-06 0.00704915 -0.00947634 -1.13687e-13 1.77636e-15 4 -5.86322 2.8618 34.3221 
-293.898 92.7227 1170.66 0.445484 0.692771 -119.805 -2.27374e-13 8 5.68434e-14 1.63295 6.42746 11.481 2.27374e-13 8 1.7053e-13 0.236152 1.12841 4.64854 0 8 -1.7053e-13 0.132987 0.562074 2.3257 2.27374e-13 8 -5.68434e-14 0.130902 0.561363 2.32366 0 17 1.13687e-13 0.920325 2.54587 8.12854 0 10.8 -5.68434e-14 -2.41356 -4.79035 18.977 5 17 1.13687e-13 -3.30481 1.88355 -0.492811 6.45 -1.13687e-13 0 -1.03444 0.106711 -0.76404 6.45 2.84217e-14 2.84217e-14 13.7424 -47.2791 20.5804 0 -32.4 -2 -9.36924 -44.6284 -4.58073 0 -25.65 2 -4.05438 -7.7401 10.4066 -0.5 -1.5 2.65 2.196 -59.9392 -0.233841 2.27374e-13 -3.8 3.7 0.0160607 -0.923573 0.0934509 -4.54747e-13 -3 2.7 -0.0164399 -0.145011 0.0121879 0 -1.9 1.6 8.28515e-06 -1.20436e-05 1.08077e-05 0 -8.3 1.9 -1.39595 9.95128 0.170467 -2.27374e-13 -4.5 0 -4.69744 -0.00386223 0.00236585 2.27374e-13 -3.4 -1.13687e-13 -4.33989 -0.0189599 0.00143063 -0.25 -2.2 0.4 8.28515e-06 -1.20436e-05 1.08077e-05 2.27374e-13 -8.3 1 -2.51246 10.5649 0.359985 -4.54747e-13 -4.65 -5.68434e-14 -15.5321 -0.00724685 0.00561236 -2.27374e-13 -3.3 -5.68434e-14 -90.0002 -5.17564e-05 2.63265e-05 -0.5 -2.15 -0.8 8.28515e-06 -1.20436e-05 1.08077e-05 0 -7.75 -0.2 -4.03319 4.45838 9.38875 0 -3.8 0 -23.8759 0.00086046 -0.00790844 -4.54747e-13 -3.4 0 -90.0002 0.00494462 0.00162347 -0.75 -1.75 -1.85 8.28515e-06 -1.20436e-05 1.08077e-05 0 -7.15 -1 -5.96262 12.0046 0.984415 0 -3 1.13687e-13 -17.0943 0.00201335 -0.0151897 2.27374e-13 -2.35 -5.68434e-14 -13.9299 0.00789234 -0.0134791 -5 17 2.84217e-14 -2.25613 5.88007 0.0462192 -6.45 -1.13687e-13 -1.13687e-13 -1.16244 -0.0586666 -3.03693 -6.45 0 -2.84217e-14 4.33412 -41.7303 -4.86806 0 -32.4 -2 68.0968 -48.7702 50.6631 -1.13687e-13 -25.65 2 -17.4427 18.5155 20.4822 0.5 -1.5 2.65 -166.928 85.8558 -19.0007 2.27374e-13 -3.8 3.7 0.452206 48.7075 0.0472144 0 -3 2.7 0.0325913 15.2574 -0.00792095 0 -1.9 1.6 -9.12999e-06 -3.90493e-06 -2.36182e-06 0 -8.3 1.9 0.146468 -2.9141 0.00475699 0 -4.5 -2.27374e-13 4.15735 10.063 2.01789 0 -3.4 -2.27374e-13 20.1551 0.00642748 -0.000763314 0.25 -2.2 0.4 -9.12999e-06 -3.90493e-06 -2.36182e-06 2.27374e-13 -8.3 1 12.8561 6.36077 -1.71092 -2.27374e-13 -4.65 -1.13687e-13 0.429248 15.0503 13.5364 0 -3.3 0 74.0654 -0.0441364 -0.0256909 0.5 -2.15 -0.8 -9.12999e-06 -3.90493e-06 -2.36182e-06 0 -7.75 -0.2 50.0979 3.15951 -4.92181 5.68434e-14 -3.8 5.68434e-14 1.00101 21.7314 19.2037 -5.68434e-14 -3.4 -2.27374e-13 73.0702 0.0322402 -0.00241042 0.75 -1.75 -1.85 -9.12999e-06 -3.90493e-06 -2.36182e-06 0 -7.15 -1 73.437 0.101605 -7.34914 -5.68434e-14 -3 1.13687e-13 4.32477 16.7046 7.35056 5.68434e-14 -2.35 0 35.7305 -0.0188408 -0.0168827 8 -2.84217e-14 -5.68434e-14 5.07506 -17.535 16.7214 0 -45 -1 4.5445 3.3709 -15.161 2.27374e-13 -41 -2 -7.39196 13.0071 -34.8144 1.13687e-13 -7.5 12.5 -3.99773e-05 -0.120667 -0.0216265 -2.27374e-13 0 4 0.556714 -8.35274 29.1494 -8 2.84217e-14 5.68434e-14 -4.863 5.8604 2.12162 2.27374e-13 -45 -1 3.3921 -1.00521 -1.00884 2.27374e-13 -41 -2 2.42647 -4.50042 -24.0182 0 -7.5 12.5 -2.74759e-07 -0.00534468 -0.00947634 1.13687e-13 0 4 -5.53941 2.78083 33.6671 
-293.483 92.6636 1170.5 0.552091 0.900691 -119.4 0 8 2.27374e-13 2.00015 6.46698 11.4931 0 8 1.13687e-13 0.238481 1.19779 4.62392 0 8 -1.13687e-13 0.133566 0.596766 2.3134 2.27374e-13 8 -2.84217e-14 0.130676 0.596141 2.31171 0 17 8.52651e-14 0.890907 2.36222 8.01103 2.27374e-13 10.8 -1.7053e-13 -2.48154 -4.9912 18.6921 5 17 1.13687e-13 -3.07091 1.80459 -0.306857 6.45 -1.42109e-13 0 -1.03415 0.100476 -0.803234 6.45 2.84217e-14 0 13.3511 -48.2058 19.93 2.27374e-13 -32.4 -2 -8.11297 -43.6451 -3.4082 -2.27374e-13 -25.65 2 -4.47737 -8.23266 10.2375 -0.5 -1.5 2.65 2.70408 -59.84 0.632436 0 -3.8 3.7 0.0160607 -0.923573 0.0934509 0 -3 2.7 -0.0164681 -0.00905669 0.0164836 0 -1.9 1.6 8.28515e-06 -1.20436e-05 1.08077e-05 -2.27374e-13 -8.3 1.9 -1.34858 9.78882 0.161761 -2.27374e-13 -4.5 0 -4.78491 -0.00682717 -0.00526551 0 -3.4 -1.13687e-13 -4.41272 -0.0189598 -0.00511038 -0.25 -2.2 0.4 8.28515e-06 -1.20436e-05 1.08077e-05 -2.27374e-13 -8.3 1 -2.36937 10.5114 0.343502 -2.27374e-13 -4.65 -5.68434e-14 -15.1957 -0.00724685 0.000762798 0 -3.3 0 -90.0002 -5.17564e-05 2.63265e-05 -0.5 -2.15 -0.8 8.28515e-06 -1.20436e-05 1.08077e-05 0 -7.75 -0.2 -3.68516 4.59425 9.40493 0 -3.8 0 -23.7244 0.00086046 -0.00790844 -2.27374e-13 -3.4 0 -90.0002 0.00494462 0.00162347 -0.75 -1.75 -1.85 8.28515e-06 -1.20436e-05 1.08077e-05 0 -7.15 -1 -5.51865 12.3089 0.951702 -2.27374e-13 -3 5.68434e-14 -16.8156 0.00201335 -0.0151897 0 -2.35 -5.68434e-14 -13.7378 0.00789234 -0.0134791 -5 17 -5.68434e-14 -2.37759 5.67703 0.0214093 -6.45 -8.52651e-14 -1.13687e-13 -1.18669 -0.0408801 -3.02669 -6.45 0 2.84217e-14 5.49604 -42.3189 -4.03531 0 -32.4 -2 66.6564 -48.7443 48.336 0 -25.65 2 -16.5128 19.1436 18.7277 0.5 -1.5 2.65 -146.712 84.0686 -41.2596 0 -3.8 3.7 0.417036 50.3876 0.00546567 0 -3 2.7 0.0270334 15.6191 -0.021005 0 -1.9 1.6 -9.12999e-06 -3.90493e-06 -2.36182e-06 0 -8.3 1.9 0.128221 -2.7529 0.00475633 0 -4.5 -2.27374e-13 4.14829 10.0349 2.00618 -1.13687e-13 -3.4 -1.7053e-13 20.1049 0.00642748 -0.000763314 0.25 -2.2 0.4 -9.12999e-06 -3.90493e-06 -2.36182e-06 -2.27374e-13 -8.3 1 12.8764 6.55727 -1.73719 -3.41061e-13 -4.65 -1.13687e-13 0.432187 15.042 13.5326 0 -3.3 -1.13687e-13 74.0241 -0.02859 -0.018885 0.5 -2.15 -0.8 -9.12999e-06 -3.90493e-06 -2.36182e-06 0 -7.75 -0.2 50.092 3.38057 -5.00738 2.27374e-13 -3.8 -5.68434e-14 0.994346 21.7468 19.2253 0 -3.4 -2.27374e-13 73.2195 0.00205522 -0.00241042 0.75 -1.75 -1.85 -9.12999e-06 -3.90493e-06 -2.36182e-06 0 -7.15 -1 73.2853 0.462325 -7.56153 0 -3 5.68434e-14 4.32825 16.6599 7.30358 0 -2.35 0 35.6137 -0.0176622 -0.0157924 8 0 -5.68434e-14 5.30253 -17.9014 16.8661 2.27374e-13 -45 -1 4.82279 3.56675 -15.2026 0 -41 -2 -7.55597 13.1085 -34.8103 -1.13687e-13 -7.5 12.5 -3.99773e-05 -0.120667 -0.0216265 -2.27374e-13 8.88178e-16 4 0.636044 -8.38385 28.6415 -8 1.42109e-14 2.27374e-13 -4.18093 5.77508 2.20235 0 -45 -1 2.96954 -0.979803 -0.854374 0 -41 -2 2.32175 -4.56996 -24.118 0 -7.5 12.5 -6.47972e-06 -0.0428611 -0.00947634 0 0 4 -5.2252 2.69731 33.0531 
